<?xml version="1.0" encoding="UTF-8" standalone="no"?>
<svg
   xmlns:dc="http://purl.org/dc/elements/1.1/"
   xmlns:cc="http://creativecommons.org/ns#"
   xmlns:rdf="http://www.w3.org/1999/02/22-rdf-syntax-ns#"
   xmlns:svg="http://www.w3.org/2000/svg"
   xmlns="http://www.w3.org/2000/svg"
   xmlns:sodipodi="http://sodipodi.sourceforge.net/DTD/sodipodi-0.dtd"
   xmlns:inkscape="http://www.inkscape.org/namespaces/inkscape"
   width="500"
   height="390"
   viewBox="0 0 132.29166 103.1875"
   version="1.1"
   id="svg8"
   inkscape:version="1.0.2 (1.0.2+r75+1)"
   sodipodi:docname="illustration.svg">
  <defs
     id="defs2" />
  <sodipodi:namedview
     id="base"
     pagecolor="#ffffff"
     bordercolor="#666666"
     borderopacity="1.0"
     inkscape:pageopacity="0.0"
     inkscape:pageshadow="2"
     inkscape:zoom="0.82448651"
     inkscape:cx="11.272738"
     inkscape:cy="255.08011"
     inkscape:document-units="px"
     inkscape:current-layer="layer1"
     inkscape:document-rotation="0"
     showgrid="false"
     inkscape:showpageshadow="false"
     units="px"
     inkscape:window-width="1294"
     inkscape:window-height="704"
     inkscape:window-x="72"
     inkscape:window-y="27"
     inkscape:window-maximized="1" />
  <metadata
     id="metadata5">
    <rdf:RDF>
      <cc:Work
         rdf:about="">
        <dc:format>image/svg+xml</dc:format>
        <dc:type
           rdf:resource="http://purl.org/dc/dcmitype/StillImage" />
        <dc:title></dc:title>
      </cc:Work>
    </rdf:RDF>
  </metadata>
  <g
     inkscape:label="Layer 1"
     inkscape:groupmode="layer"
     id="layer1">
    <g
       id="g151"
       transform="translate(-0.02821214,-19.683515)">
      <g
         id="g552"
         transform="rotate(-51.71477,24.446628,-94.708642)">
        <path
           d="m -31.472853,28.026566 h -41.173913 a 1.4530516,1.4530516 0 0 1 -1.4514,-1.4514 v -4.430587 a 1.4530507,1.4530507 0 0 1 1.4514,-1.451399 h 41.173913 a 1.4530507,1.4530507 0 0 1 1.4514,1.451399 v 4.430588 a 1.4530516,1.4530516 0 0 1 -1.4514,1.451399 z m -41.173913,-7.180608 a 1.3000778,1.3000778 0 0 0 -1.298622,1.298621 v 4.430588 a 1.3000778,1.3000778 0 0 0 1.29862,1.298621 h 41.173915 a 1.3000848,1.3000848 0 0 0 1.298621,-1.298621 v -4.430588 a 1.3000848,1.3000848 0 0 0 -1.298621,-1.29862 z"
           fill="#cccccc"
           id="path40"
           style="stroke-width:0.0870128" />
        <path
           d="m -67.083263,26.886022 a 2.5261565,2.5261565 0 1 1 2.526157,-2.526134 2.529007,2.529007 0 0 1 -2.526157,2.526134 z"
           fill="#e6e6e6"
           id="path50"
           style="stroke-width:0.0870128" />
        <path
           d="m -35.203002,26.422391 h -26.965476 a 0.6111155,0.6111155 0 1 1 0,-1.222231 h 26.965476 a 0.6111155,0.6111155 0 1 1 0,1.222231 z"
           fill="#e6e6e6"
           id="path52"
           style="stroke-width:0.0870128" />
        <path
           d="m -43.987788,23.825145 h -18.18069 a 0.6111155,0.6111155 0 1 1 0,-1.222231 h 18.18069 a 0.6111155,0.6111155 0 0 1 0,1.222231 z"
           fill="#e6e6e6"
           id="path54"
           style="stroke-width:0.0870128" />
      </g>
      <g
         id="g558"
         transform="rotate(-53.455935,30.43598,-105.14766)">
        <path
           d="m -31.472853,38.491921 h -41.173913 a 1.4530507,1.4530507 0 0 1 -1.4514,-1.4514 v -4.430588 a 1.4530516,1.4530516 0 0 1 1.4514,-1.4514 h 41.173913 a 1.4530516,1.4530516 0 0 1 1.4514,1.4514 v 4.430588 a 1.4530507,1.4530507 0 0 1 -1.4514,1.4514 z m -41.173913,-7.180609 a 1.3000787,1.3000787 0 0 0 -1.298622,1.298621 v 4.430588 a 1.3000778,1.3000778 0 0 0 1.298622,1.298625 h 41.173913 a 1.3000848,1.3000848 0 0 0 1.298621,-1.29862 v -4.430593 a 1.3000857,1.3000857 0 0 0 -1.298621,-1.298621 z"
           fill="#cccccc"
           id="path42"
           style="stroke-width:0.0870128" />
        <path
           d="m -67.083263,37.351397 a 2.5261765,2.5261765 0 1 1 2.526157,-2.526176 2.5290444,2.5290444 0 0 1 -2.526157,2.526176 z"
           fill="#e6e6e6"
           id="path56"
           style="stroke-width:0.0870128" />
        <path
           d="m -35.203002,36.887742 h -26.965476 a 0.61111634,0.61111634 0 1 1 0,-1.222231 h 26.965476 a 0.61111634,0.61111634 0 0 1 0,1.222231 z"
           fill="#e6e6e6"
           id="path58"
           style="stroke-width:0.0870128" />
        <path
           d="m -43.987788,34.290501 h -18.18069 a 0.6111155,0.6111155 0 1 1 0,-1.222231 h 18.18069 a 0.6111155,0.6111155 0 0 1 0,1.222231 z"
           fill="#e6e6e6"
           id="path60"
           style="stroke-width:0.0870128" />
      </g>
      <g
         id="g1393"
         transform="translate(0.39021398,-0.16735768)">
        <path
           d="m 91.447182,22.547311 -24.513724,33.08124 a 1.4527157,1.4527157 0 0 0 0.302008,2.03025 l 3.559763,2.63784 a 1.4527157,1.4527157 0 0 0 2.03025,-0.302009 l 24.513724,-33.08124 a 1.4527157,1.4527157 0 0 0 -0.302009,-2.03025 l -3.559763,-2.63784 a 1.4527157,1.4527157 0 0 0 -2.030249,0.302009 z m 5.499052,2.458582 a 1.3004633,1.3004633 0 0 1 0.270219,1.81654 l -24.513724,33.08124 a 1.3004624,1.3004624 0 0 1 -1.816541,0.270218 l -3.559762,-2.63784 A 1.3004624,1.3004624 0 0 1 67.056207,55.719513 L 91.569933,22.638271 a 1.3004633,1.3004633 0 0 1 1.816538,-0.270219 z"
           fill="#3f3d56"
           id="path38"
           style="fill:#cccccc;fill-opacity:1;stroke-width:0.0870128" />
        <path
           d="m 75.22147,54.845596 a 2.5261765,2.5261765 0 1 1 -0.525661,-3.533655 2.5290444,2.5290444 45 0 1 0.525661,3.533655 z"
           fill="#9cffe7"
           id="path44"
           style="stroke-width:0.0870128" />
        <path
           d="M 93.829503,28.955305 77.77506,50.620756 a 0.6111155,0.6111155 0 1 1 -0.982003,-0.72768 L 92.8475,28.227625 a 0.6111155,0.6111155 0 1 1 0.982003,0.72768 z"
           fill="#cccccc"
           id="path46"
           style="stroke-width:0.0870128" />
        <path
           d="M 86.512546,34.467135 75.688304,49.074436 A 0.61111634,0.61111634 0 1 1 74.7063,48.346756 L 85.530542,33.739454 a 0.61111609,0.61111609 0 0 1 0.982004,0.727681 z"
           fill="#cccccc"
           id="path48"
           style="stroke-width:0.0870128" />
        <path
           id="a0cfb668-db22-436f-bdef-92b50d362156"
           data-name="Path 395"
           d="m 73.828926,53.974288 a 0.28895482,0.28895482 0 0 1 -0.14992,0.105267 l -0.0037,0.0011 -0.792238,0.22786 a 0.29096665,0.29096665 0 1 1 -0.160262,-0.55943 l 0.513788,-0.147115 -0.453798,-1.583589 a 0.29084299,0.29084299 0 0 1 0.199503,-0.359695 l 1.03e-4,-3.3e-5 0.0032,0.0101 -0.0031,-0.01026 a 0.29119366,0.29119366 0 0 1 0.359725,0.199601 l 0.533216,1.862239 a 0.29101876,0.29101876 0 0 1 -0.04662,0.253502 z"
           fill="#ffffff"
           style="stroke-width:0.0870128" />
      </g>
      <g
         id="g511"
         transform="rotate(-53.061274,55.670122,55.380346)">
        <path
           d="M 82.151198,34.129359 H 48.213573 a 1.1986685,1.1986685 0 0 0 -1.19697,1.196971 v 13.096262 a 1.1986678,1.1986678 0 0 0 1.19697,1.19697 h 33.937625 a 1.1986671,1.1986671 0 0 0 1.19697,-1.19697 V 35.32633 a 1.1986678,1.1986678 0 0 0 -1.19697,-1.196971 z m 1.05615,14.293233 a 1.0574372,1.0574372 0 0 1 -1.05615,1.05615 H 48.213573 a 1.0574372,1.0574372 0 0 1 -1.05615,-1.05615 V 35.32633 a 1.0574372,1.0574372 0 0 1 1.05615,-1.056151 h 33.937625 a 1.0574372,1.0574372 0 0 1 1.05615,1.056151 z"
           fill="#3f3d56"
           id="path134"
           style="stroke-width:0.07041" />
        <path
           d="m 54.375414,45.958241 a 4.0837806,4.0837806 0 1 1 4.08378,-4.08378 4.0884037,4.0884037 0 0 1 -4.08378,4.08378 z m 0,-8.026741 a 3.9429606,3.9429606 0 1 0 3.94296,3.942961 3.9474337,3.9474337 0 0 0 -3.94296,-3.942961 z"
           fill="#3f3d56"
           id="path136"
           style="stroke-width:0.07041" />
        <path
           d="M 79.122599,39.26929 H 62.857886 a 0.87989277,0.87989277 0 0 0 -0.878717,0.845624 0.28239906,0.28239906 0 0 0 -0.0014,0.0345 0.88136575,0.88136575 0 0 0 0.880125,0.880125 h 16.264713 a 0.88012512,0.88012512 0 0 0 0,-1.76025 z"
           fill="#9cffe7"
           id="path138"
           style="stroke-width:0.07041" />
        <path
           d="M 79.122599,42.719381 H 62.857886 a 0.87989277,0.87989277 0 0 0 -0.878717,0.845624 0.28239906,0.28239906 0 0 0 -0.0014,0.0345 0.88136575,0.88136575 0 0 0 0.880125,0.880125 h 16.264713 a 0.88012512,0.88012512 0 0 0 0,-1.76025 z"
           fill="#9cffe7"
           id="path140"
           style="stroke-width:0.07041" />
        <path
           d="M 53.919816,43.658772 A 0.52525234,0.52525234 0 0 1 53.60377,43.553791 l -0.0057,-0.0042 -1.190211,-0.911267 a 0.52878351,0.52878351 0 1 1 0.643212,-0.839479 l 0.770928,0.591136 1.821826,-2.375926 a 0.52876368,0.52876368 0 0 1 0.741376,-0.09786 l -0.01133,0.01538 0.01162,-0.01516 a 0.52937696,0.52937696 0 0 1 0.09787,0.741381 l -2.1429,2.794658 a 0.52899745,0.52899745 0 0 1 -0.420691,0.206363 z"
           fill="#9cffe7"
           id="path142"
           style="stroke-width:0.07041" />
      </g>
      <path
         d="m 119.05878,72.444939 c -0.0215,1.68021 -0.0984,3.562645 -0.27096,5.545973 l 4.83979,-6.034758 0.034,0.0944 a 15.096023,15.096023 0 0 0 -1.74109,-3.859722 l 0.0383,0.08881 z"
         fill="#57b894"
         id="path182"
         style="stroke-width:0.141982" />
      <path
         d="m 119.06202,72.15018 2.80929,-4.034761 c -0.80766,-1.216783 -1.77493,-2.158904 -2.87968,-2.733573 -0.0575,-0.0299 -0.11514,-0.05777 -0.17281,-0.08541 0.0429,0.454834 0.27721,3.126054 0.2432,6.853743 z"
         fill="#57b894"
         id="path184"
         style="stroke-width:0.141982" />
      <path
         d="m 124.23279,83.862855 q 0.17841,-1.055419 0.27705,-2.106083 l -7.29852,5.732338 -0.01,-0.05062 q -0.16466,0.620212 -0.34364,1.21921 l 7.35782,-4.906317 z"
         fill="#57b894"
         id="path186"
         style="stroke-width:0.141982" />
      <path
         d="m 118.04384,83.629091 6.53213,-6.053928 0.0256,0.104735 a 23.731207,23.731207 0 0 0 -0.90993,-5.527361 l -4.93204,6.149706 q -0.25527,2.787226 -0.71576,5.326848 z"
         fill="#57b894"
         id="path188"
         style="stroke-width:0.141982" />
      <path
         d="m 118.63553,78.197803 -8.73761,-8.683038 0.0379,-0.10606 a 19.815344,19.815344 0 0 0 -1.76879,3.580706 l 9.94327,9.430186 c 0.23672,-1.473939 0.40574,-2.897625 0.52521,-4.221794 z"
         fill="#57b894"
         id="path190"
         style="stroke-width:0.141982" />
      <path
         d="m 117.88221,83.738807 q 0.10026,-0.539985 0.18814,-1.073117 l -9.97995,-9.464992 0.0369,-0.106827 q -0.24758,0.660632 -0.46471,1.363745 l 0.0362,-0.107153 z"
         fill="#57b894"
         id="path192"
         style="stroke-width:0.141982" />
      <path
         d="m 117.26345,87.19797 7.2377,-5.684575 0.0211,0.108552 a 28.338634,28.338634 0 0 0 0.0853,-3.819175 l -6.62044,6.135816 q -0.31668,1.691707 -0.7237,3.259382 z"
         fill="#57b894"
         id="path194"
         style="stroke-width:0.141982" />
      <path
         d="m 106.96904,83.353392 8.18379,9.487355 a 34.084381,34.084381 0 0 0 1.43785,-3.823382 l -9.84919,-9.214912 a 27.413899,27.413899 0 0 0 0.18141,3.665449 z"
         fill="#57b894"
         id="path196"
         style="stroke-width:0.141982" />
      <path
         d="m 118.67931,65.296123 0.0664,-0.03441 c -1.71798,-0.793936 -3.51654,-0.593958 -5.19347,0.408765 l 5.37534,6.480712 c 0.0358,-4.033109 -0.24416,-6.81515 -0.24828,-6.855064 z"
         fill="#57b894"
         id="path198"
         style="stroke-width:0.141982" />
      <path
         d="m 116.64937,89.336149 a 33.863166,33.863166 0 0 1 -1.30003,3.447836 l 7.425,-4.403051 0.0141,0.109695 a 13.424448,13.424448 0 0 0 1.16233,-3.182762 q 0.14529,-0.652368 0.25842,-1.306424 l -7.44556,4.964759 c -0.0379,0.123545 -0.0754,0.24779 -0.11427,0.369947 z"
         fill="#57b894"
         id="path200"
         style="stroke-width:0.141982" />
      <path
         d="m 118.92432,72.451681 -5.49862,-6.629453 0.0421,-0.101391 c -1.25817,0.774419 -2.44523,2.001863 -3.47551,3.600371 l 8.66646,8.612322 c 0.16919,-1.960927 0.24459,-3.821205 0.26556,-5.481849 z"
         fill="#57b894"
         id="path202"
         style="stroke-width:0.141982" />
      <path
         d="m 116.66109,88.788894 a 45.996312,45.996312 0 0 0 1.17579,-4.809752 l -10.20855,-9.411453 q -0.28993,0.953895 -0.51937,1.979558 a 16.481765,16.481765 0 0 0 -0.36041,2.97879 l 9.90549,9.267555 z"
         fill="#57b894"
         id="path204"
         style="stroke-width:0.141982" />
      <path
         d="m 127.17659,98.971388 c -1.08823,1.280372 -2.34813,2.681142 -3.746,4.098642 l 7.57661,-1.56104 -0.034,0.0944 a 15.096313,15.096313 0 0 0 1.12083,-4.083215 l -0.0271,0.09286 z"
         fill="#57b894"
         id="path206"
         style="stroke-width:0.141982" />
      <path
         d="m 131.6298,93.488642 c -0.0252,-0.05969 -0.0518,-0.117934 -0.0786,-0.176006 -0.25701,0.377697 -1.78032,2.584465 -4.18409,5.433802 l 4.73711,-1.315734 c 0.15404,-1.45229 0.01,-2.79484 -0.47439,-3.942062 z"
         fill="#57b894"
         id="path208"
         style="stroke-width:0.141982" />
      <path
         d="m 116.18297,109.33465 q -0.52237,0.37266 -1.04228,0.71984 l 8.79624,0.91414 -0.0579,0.0968 q 0.8106,-0.69908 1.55668,-1.44537 l -9.27743,-0.24012 z"
         fill="#57b894"
         id="path210"
         style="stroke-width:0.141982" />
      <path
         d="m 119.26147,106.93797 8.89225,-0.49638 -0.0471,0.097 a 23.732065,23.732065 0 0 0 2.82464,-4.83749 l -7.72099,1.59072 q -1.97437,1.98387 -3.94882,3.64616 z"
         fill="#57b894"
         id="path212"
         style="stroke-width:0.141982" />
      <path
         d="m 116.38413,109.18893 9.20011,0.23811 -0.053,0.0971 a 28.338617,28.338617 0 0 0 2.50164,-2.88706 l -9.0125,0.50312 q -1.3229,1.10094 -2.63628,2.04875 z"
         fill="#57b894"
         id="path214"
         style="stroke-width:0.141982" />
      <path
         d="m 105.43304,114.36892 c 0.0612,-0.0696 0.12308,-0.14038 0.18689,-0.21422 a 23.583359,23.583359 0 0 0 5.34516,-1.87088 l -0.13269,-6.59886 q 0.0965,-0.25867 0.18585,-0.52093 l 0.14126,7.02472 a 34.083325,34.083325 0 0 0 3.54602,-2.02764 l -1.55995,-12.21703 q 0.0949,-0.05659 0.19351,-0.116301 l 1.55796,12.201401 0.008,8.5e-4 a 46.000122,46.000122 0 0 0 3.97332,-2.95448 l -1.6241,-12.01629 q 0.094,-0.07755 0.18814,-0.156587 l 1.62416,12.016687 q 0.42162,-0.35194 0.82936,-0.7065 L 118.4257,94.038646 q 0.0935,-0.0861 0.1866,-0.173622 l 1.47179,12.183816 c 1.12242,-0.98424 2.16065,-1.97294 3.09724,-2.9166 l -1.19145,-12.260569 0.0969,-0.0575 c -0.33545,0.108572 -0.67515,0.23187 -1.01762,0.366793 a 17.366298,17.366298 0 0 0 1.62648,-2.509942 l -7.49608,4.44518 a 26.056289,26.056289 0 0 1 -1.6243,3.026622 c -0.1332,0.140973 -0.26556,0.283957 -0.39628,0.430717 l 0.019,0.149134 q -0.0872,0.129781 -0.17546,0.257652 l -0.0253,-0.198398 c -0.0746,0.08593 -0.14833,0.173537 -0.22206,0.261207 a 24.540472,24.540472 0 0 0 2.28859,-4.00516 l -8.12387,-9.417935 c 0.10209,0.874928 0.23853,1.753737 0.3995,2.623896 a 14.905091,14.905091 0 0 0 -2.70915,-2.93834 l 0.0639,0.07262 -1.47059,4.857722 c 0.49892,1.604573 1.00759,3.418612 1.45655,5.358143 l 2.69958,-7.135114 q 0.0307,0.16182 0.0625,0.323141 l -2.69272,7.116778 q 0.61876,2.729653 0.9658,5.287244 l 3.37669,-6.049052 q 0.0392,0.124083 0.0783,0.24642 l -3.4132,6.114489 q 0.22175,1.706752 0.3192,3.323472 l 4.19385,-6.253214 q 0.043,0.115766 0.0847,0.22693 l -4.23816,6.319284 -0.025,-0.0451 q 0.0351,0.64073 0.05,1.26572 l 4.78808,-6.062926 q 0.0477,0.117987 0.0887,0.217613 l -4.87097,6.167833 c 0.002,0.12921 0.005,0.25896 0.006,0.38714 a 33.859933,33.859933 0 0 1 -0.17065,3.68083 l 0.46513,-0.52895 q -0.12352,0.29938 -0.24045,0.59043 l -0.26449,0.30077 c -0.021,0.18218 -0.0441,0.36256 -0.0683,0.54206 q -0.13527,0.34902 -0.26012,0.68097 0.10149,-0.62393 0.17507,-1.25546 l -10.637118,-6.44567 c 3.064004,6.67376 8.465618,12.87806 8.811228,13.27171 q 0.34849,-0.75242 0.62875,-1.53911 c 0.0635,-0.01 0.1269,-0.0202 0.19032,-0.0306 -0.0219,0.0629 -0.0434,0.12627 -0.0658,0.18868 -0.0331,0.005 -0.0664,0.0116 -0.0995,0.0169 q 0.0412,0.009 0.0864,0.0187 -0.1995,0.55109 -0.42598,1.07674 c 0.2128,-0.2148 0.53167,-0.54677 0.91784,-0.97634 2.44341,0.47503 8.99856,1.41181 14.43296,-0.84822 l -8.60858,-1.35747 a 23.818041,23.818041 0 0 1 -5.58674,1.93823 z m 5.35072,-11.10337 0.19192,-0.21824 0.006,0.30993 -0.19193,0.21824 z"
         fill="#57b894"
         id="path216"
         style="stroke-width:0.141982" />
      <path
         d="m 131.44394,93.223418 0.0731,0.01585 c -0.8168,-1.707245 -2.32959,-2.700369 -4.26068,-2.997659 l 0.007,8.419852 c 2.59994,-3.083436 4.15876,-5.404683 4.18105,-5.438044 z"
         fill="#57b894"
         id="path218"
         style="stroke-width:0.141982" />
      <path
         d="m 114.54741,110.44407 a 33.863473,33.863473 0 0 1 -3.20035,1.82631 l 8.52699,1.34458 -0.0591,0.0935 a 13.425112,13.425112 0 0 0 2.92523,-1.70996 q 0.52798,-0.4098 1.03229,-0.84139 l -8.9011,-0.92508 c -0.10801,0.071 -0.21612,0.14276 -0.32395,0.21207 z"
         fill="#57b894"
         id="path220"
         style="stroke-width:0.141982" />
      <path
         d="m 123.36779,102.94351 c 1.38102,-1.40237 2.62558,-2.78705 3.70094,-4.052682 l -0.007,-8.613049 0.0971,-0.05122 c -1.46296,-0.20603 -3.16013,-0.0178 -4.97317,0.556231 z"
         fill="#57b894"
         id="path222"
         style="stroke-width:0.141982" />
      <path
         d="m 104.56005,83.249087 c -1.1442,-0.907558 -2.35531,-1.50456 -3.58359,-1.709601 -0.0639,-0.01066 -0.12736,-0.01935 -0.19075,-0.02781 0.18143,0.419271 1.22989,2.887279 2.34978,6.44294 z"
         fill="#57b894"
         id="path224"
         style="stroke-width:0.141982" />
      <path
         d="m 104.59918,93.83791 -10.993641,-5.557062 0.0033,-0.112591 a 19.814726,19.814726 0 0 0 -0.575376,3.952084 l 12.371197,5.894968 c -0.23047,-1.474933 -0.5098,-2.881141 -0.80546,-4.177399 z"
         fill="#57b894"
         id="path226"
         style="stroke-width:0.141982" />
      <path
         d="m 105.44269,98.261699 -12.416854,-5.916719 0.002,-0.112987 q -0.03129,0.704796 -0.02044,1.440606 l 0.0013,-0.113085 12.586724,5.780907 q -0.0715,-0.544532 -0.15275,-1.078722 z"
         fill="#57b894"
         id="path228"
         style="stroke-width:0.141982" />
      <path
         d="M 105.99876,104.75971 93.783567,99.040391 a 27.413358,27.413358 0 0 0 1.305522,3.429879 l 0.0085,-0.12316 10.715531,6.49318 a 34.085238,34.085238 0 0 0 0.18565,-4.08058 z"
         fill="#57b894"
         id="path230"
         style="stroke-width:0.141982" />
      <path
         d="m 100.65295,81.554486 0.0525,-0.05324 c -1.879248,-0.224047 -3.527924,0.522079 -4.812786,1.99403 l 7.115266,4.50186 c -1.2126,-3.846681 -2.33873,-6.40596 -2.35498,-6.442647 z"
         fill="#57b894"
         id="path232"
         style="stroke-width:0.141982" />
      <path
         d="m 103.09772,88.283906 -7.278496,-4.605205 0.0087,-0.10944 c -0.957182,1.125393 -1.706722,2.659648 -2.192441,4.498326 l 10.904107,5.511808 c -0.44521,-1.917192 -0.94852,-3.709679 -1.44187,-5.295489 z"
         fill="#57b894"
         id="path234"
         style="stroke-width:0.141982" />
      <path
         d="m 105.9951,104.52066 a 45.999687,45.999687 0 0 0 -0.36848,-4.937656 L 93.008926,93.787853 q 0.01913,0.996792 0.117947,2.043157 a 16.482421,16.482421 0 0 0 0.577976,2.944324 l 12.285001,5.751966 z"
         fill="#57b894"
         id="path236"
         style="stroke-width:0.141982" />
      <rect
         x="68.651047"
         y="47.409622"
         width="30.593901"
         height="1.212563"
         transform="rotate(7.1844183)"
         fill="#9cffe7"
         opacity="0.3"
         id="rect250"
         style="stroke-width:0.141982" />
      <rect
         x="68.651039"
         y="51.327137"
         width="30.593901"
         height="1.212563"
         transform="rotate(7.1844183)"
         fill="#9cffe7"
         opacity="0.3"
         id="rect252"
         style="stroke-width:0.141982" />
      <rect
         x="68.651047"
         y="55.244648"
         width="30.593901"
         height="1.212563"
         transform="rotate(7.1844183)"
         fill="#9cffe7"
         opacity="0.3"
         id="rect254"
         style="stroke-width:0.141982" />
      <rect
         x="34.156399"
         y="57.503952"
         width="30.593901"
         height="1.212563"
         fill="#9cffe7"
         opacity="0.3"
         id="rect290"
         style="stroke-width:0.141982" />
      <path
         d="M 44.983174,56.772784 32.258087,46.879902 A 1.4526042,1.4526042 0 0 0 30.998816,46.15138 h -6.867988 a 1.4526028,1.4526028 0 0 0 -1.452603,1.452603 v 60.617797 a 4.7116806,4.7116806 0 0 0 4.711681,4.71168 h 70.502707 a 4.7116792,4.7116792 0 0 0 4.711677,-4.71168 V 61.055322 a 4.2825383,4.2825383 0 0 0 -4.282535,-4.282538 z"
         fill="#3f3d56"
         id="path292"
         style="fill:#3f9eff;fill-opacity:1;stroke-width:0.141982" />
      <rect
         x="87.418335"
         y="70.830475"
         width="12.788172"
         height="4.4758606"
         fill="#9cffe7"
         id="rect294"
         style="stroke-width:0.141982" />
      <path
         d="m 0.18487458,122.14301 c 0,0 58.48786742,-33.449055 129.11472542,0"
         fill="#f2f2f2"
         id="path296"
         style="stroke-width:0.141982" />
      <path
         d="m 12.711406,45.384012 c 0,0 0.627728,3.326952 0.188319,3.578042 a 7.6305661,7.6305661 0 0 0 -1.004362,0.753272 l 1.129908,1.569323 2.699224,0.564954 2.57368,-2.385361 v -2.385367 c 0,0 -0.753272,-1.192681 -0.627726,-1.945954 0.125546,-0.753272 -4.959043,0.251091 -4.959043,0.251091 z"
         fill="#fbbebe"
         id="path298"
         style="stroke-width:0.141982" />
      <path
         d="m 12.711406,45.384012 c 0,0 0.627728,3.326952 0.188319,3.578042 a 7.6305661,7.6305661 0 0 0 -1.004362,0.753272 l 1.129908,1.569323 2.699224,0.564954 2.57368,-2.385361 v -2.385367 c 0,0 -0.753272,-1.192681 -0.627726,-1.945954 0.125546,-0.753272 -4.959043,0.251091 -4.959043,0.251091 z"
         opacity="0.1"
         id="path300"
         style="stroke-width:0.141982" />
      <path
         d="m 8.3800847,51.096325 -0.3766362,0.188319 c 0,0 -0.8160437,0.313863 -1.1926798,3.013089 -0.3766361,2.699225 -1.2554542,9.164809 -1.0043625,9.353128 0.2510917,0.188319 0.1255444,1.443772 0.1255444,1.443772 l 1.8831806,-9.855311 z"
         fill="#2f2e41"
         id="path302"
         style="stroke-width:0.141982" />
      <path
         d="m 12.843816,35.776273 c -0.05742,0.119833 -0.07756,0.259741 -0.13143,0.381813 -0.244653,0.55436 -0.941114,0.430312 -1.443458,0.639998 -0.425432,0.177581 -0.742951,0.665214 -0.776242,1.19212 -0.01413,0.223701 0.01866,0.449321 -0.0014,0.672395 -0.03714,0.412062 -0.249604,0.774936 -0.325226,1.179736 -0.1836986,0.983365 0.24493,2.536307 0.72891,2.005623 0.15262,-0.167349 0.343656,-0.278284 0.508507,-0.428927 0.428138,-0.391236 0.646188,-1.01331 0.993958,-1.501551 a 0.52486495,0.52486495 0 0 1 0.176567,-0.175004 c 0.254117,-0.126272 0.480342,0.211709 0.681228,0.433252 a 1.0666058,1.0666058 0 0 0 1.600133,-0.03055 0.93908502,0.93908502 0 0 1 0.225431,-0.230322 0.4807044,0.4807044 0 0 1 0.313286,-0.03075 2.0567631,2.0567631 0 0 1 1.254297,0.746824 c 0.167741,0.205295 0.308016,0.446827 0.509079,0.605993 0.201063,0.159166 0.494407,0.211604 0.675481,0.02243 0.364435,0.257649 0.500376,0.804593 0.501337,1.30267 9.94e-4,0.498078 -0.101077,0.992938 -0.07619,1.490164 0.02489,0.497227 0.220101,1.033862 0.616342,1.216295 a 1.7712692,1.7712692 0 0 1 0.655852,-1.147443 c 0.269874,-0.200869 0.597873,-0.300381 0.826101,-0.562543 0.456927,-0.524864 0.312144,-1.3979 0.329695,-2.146693 0.02164,-0.923548 0.341708,-1.806489 0.398258,-2.728012 0.02825,-0.460529 -0.01932,-0.954287 -0.261708,-1.318709 a 2.1668982,2.1668982 0 0 0 -0.68253,-0.591267 l -2.154587,-1.382288 a 0.91951853,0.91951853 0 0 0 -0.319428,-0.151539 c -0.31718,-0.05691 -0.591347,0.240558 -0.89203,0.371644 a 1.8062336,1.8062336 0 0 1 -0.782895,0.09496 c -0.836431,-0.02266 -1.071856,0.139779 -1.634081,-0.405182 a 0.39631193,0.39631193 0 0 0 -0.339641,-0.1133 c -0.336265,0.0533 -0.989669,0.204266 -1.173623,0.588163 z"
         fill="#2f2e41"
         id="path304"
         style="stroke-width:0.141982" />
      <polygon
         points="81.595,716.92 97.511,716.92 106.795,737.257 88.668,743.447 79.384,738.584 "
         fill="#fbbebe"
         id="polygon306"
         transform="matrix(0.14198164,0,0,0.14198164,0.18487482,9.8197463)" />
      <path
         d="m 12.836945,114.05732 c 0,0 -2.071498,-1.25545 -2.448134,-0.81605 -0.376636,0.43941 -3.389725,3.64082 -3.389725,3.64082 0,0 -4.6451778,2.51091 -1.067134,2.88754 3.5780438,0.37664 9.415902,-2.19704 9.415902,-2.19704 0,0 0.313863,-3.38972 0.06277,-3.4525 -0.25109,-0.0628 -1.318225,0.56496 -1.820407,0.37664 a 2.2509386,2.2509386 0 0 1 -0.753274,-0.43941 z"
         fill="#2f2e41"
         id="path308"
         style="stroke-width:0.141982" />
      <polygon
         points="97.511,751.405 102.816,732.836 121.385,738.584 121.385,756.71 "
         fill="#fbbebe"
         id="polygon310"
         transform="matrix(0.14198164,0,0,0.14198164,0.18487482,9.8197463)" />
      <path
         d="m 13.966853,115.56386 c 0,0 3.452497,-0.56495 3.766362,1.12991 0.313864,1.69486 1.129907,4.20577 0.313863,4.8335 -0.816044,0.62773 -5.021814,1.44377 -5.084587,0.37663 -0.06277,-1.06713 0.439409,-3.13863 0.439409,-3.13863 0,0 0.313863,-1.63209 0.125544,-2.0715 -0.188318,-0.43941 0.439409,-1.12991 0.439409,-1.12991 z"
         fill="#2f2e41"
         id="path312"
         style="stroke-width:0.141982" />
      <path
         d="m 7.0710438,73.176192 c 0,0 -2.8339536,17.969101 -0.511364,26.757275 2.3225897,8.788173 3.9546772,13.998303 3.9546772,13.998303 0,0 4.01745,-1.12991 4.01745,-1.88318 0,-0.75327 -1.569323,-11.92681 -1.945952,-12.993944 -0.376629,-1.067135 -1.004363,-1.443771 -0.439409,-2.322589 0.564953,-0.878818 1.506544,-6.528359 1.506544,-6.528359 0,0 2.071498,9.353129 2.197044,9.60422 0.125546,0.251092 -1.318227,14.626042 -1.318227,14.626042 0,0 4.143667,3.00705 4.394087,0.75327 0.06277,-0.56495 2.824771,-20.589436 2.824771,-20.840526 0,-0.25109 1.129908,-19.459529 -0.6905,-20.40112 C 19.239758,73.003993 7.0710438,73.176192 7.0710438,73.176192 Z"
         fill="#2f2e41"
         id="path314"
         style="stroke-width:0.141982" />
      <circle
         cx="15.159534"
         cy="42.370922"
         r="4.2685418"
         fill="#fbbebe"
         id="circle316"
         style="stroke-width:0.141982" />
      <path
         d="m 14.217944,50.845235 v -0.439409 l -1.255453,-2.071498 c 0,0 -1.255454,0.125546 -1.443772,0.690499 -0.188317,0.564954 -2.3225892,5.084587 -2.3225892,5.084587 L 6.9363131,74.384988 c 0,0 6.2144949,1.506545 7.1560859,0.439409 0.941591,-1.067135 4.519632,-24.293025 4.519632,-24.293025 l 0.502179,-2.824771 c 0,0 -0.862294,-1.255454 -1.058873,-1.067134 -0.196579,0.188321 -3.46076,3.829133 -3.46076,3.829133 l -0.06277,0.564955 z"
         fill="#9cffe7"
         id="path318"
         style="stroke-width:0.141982" />
      <path
         d="m 12.931105,47.926305 c 0,0 -1.161295,-0.282477 -1.537931,0.408023 -0.376637,0.690499 -0.376637,0.941589 -0.753273,1.192681 -0.376636,0.251092 -2.5736795,1.380999 -2.699224,1.820408 -0.1255444,0.439409 -2.8247715,14.312175 -2.8247715,14.312175 0,0 -1.3182257,4.142997 -0.6904994,6.967767 0.6277264,2.824771 0.1883188,3.389724 1.5065445,3.640816 1.3182257,0.251091 1.5065445,0.25109 1.5065445,-0.125546 0,-0.376636 1.6948618,-13.11949 2.8875429,-13.998307 1.192681,-0.878816 0.878818,-10.483036 0.878818,-10.483036 0,0 1.694862,-2.071498 1.694862,-2.385363 0,-0.313865 0.282477,-1.373161 0.03139,-1.349618 z"
         fill="#2f2e41"
         id="path320"
         style="stroke-width:0.141982" />
      <path
         d="m 16.47776,50.21751 c 0.175133,0.02919 2.57368,-3.075862 2.761998,-2.950316 0.188317,0.125546 1.129908,1.757634 1.255454,1.757634 0.125546,0 5.461223,1.318226 5.900632,3.766362 0.439409,2.448135 -3.075862,10.231945 -3.075862,10.231945 0,0 -1.506544,4.45686 -1.192681,6.402814 a 13.109393,13.109393 0 0 1 -0.125545,4.456859 c -0.125545,0.502189 -0.564955,1.067134 -0.439409,1.318227 0.125546,0.251093 -2.761997,-0.313863 -3.954678,0.376636 -1.192681,0.690499 -6.528359,1.19268 -6.214495,0.439408 0.313863,-0.753272 0.502189,-3.703591 1.380998,-6.842222 0.87881,-3.13863 3.138635,-10.545808 2.761999,-11.04799 -0.376636,-0.502182 0.564953,-7.972132 0.941589,-7.909357 z"
         fill="#2f2e41"
         id="path322"
         style="stroke-width:0.141982" />
      <path
         d="m 25.642572,52.037916 0.816043,0.753272 c 0,0 0.941591,1.632089 0.816046,2.385361 -0.125546,0.753273 2.636457,12.115128 1.506544,12.491764 -1.129913,0.376636 -3.829133,2.259815 -4.142997,2.761997 -0.313865,0.502182 -1.067134,1.380999 -1.569316,1.632089 -0.502182,0.25109 -1.004363,0.690499 -1.318227,0.439409 -0.313865,-0.25109 -1.004363,-5.39845 -0.502181,-5.586768 0.502182,-0.188317 1.004363,-0.753272 1.506545,-0.753272 0.502182,0 0.816043,-0.502182 0.816043,-0.941591 0,-0.439409 -0.376636,-3.07586 -0.376636,-3.07586 l -0.816044,-6.214495 z"
         fill="#2f2e41"
         id="path324"
         style="stroke-width:0.141982" />
      <path
         d="m 13.596891,36.400902 c -0.05077,0.09058 -0.06858,0.196353 -0.116211,0.288634 -0.216323,0.419072 -0.832137,0.325297 -1.276313,0.48381 a 1.0631372,1.0631372 0 0 0 -0.686355,0.901191 c -0.01249,0.169109 0.0165,0.339667 -0.0013,0.508303 -0.03284,0.311499 -0.220704,0.585816 -0.287566,0.891828 -0.162427,0.743376 0.216568,1.917338 0.644505,1.516163 0.134946,-0.126505 0.303863,-0.210368 0.449624,-0.324246 0.378563,-0.295758 0.571363,-0.766019 0.878867,-1.135108 a 0.43806447,0.43806447 0 0 1 0.156121,-0.132295 c 0.224692,-0.09546 0.424721,0.160043 0.602344,0.327519 a 1.052686,1.052686 0 0 0 1.414839,-0.0231 0.7782752,0.7782752 0 0 1 0.199328,-0.174113 0.49159723,0.49159723 0 0 1 0.277006,-0.02324 1.8978416,1.8978416 0 0 1 1.109056,0.56457 3.0331751,3.0331751 0 0 0 0.45013,0.458105 c 0.177779,0.120323 0.437161,0.159962 0.597263,0.01696 0.322235,0.194772 0.442434,0.608237 0.443286,0.984762 8.52e-4,0.376526 -0.08937,0.750617 -0.06736,1.1265 0.02201,0.375882 0.194615,0.781555 0.544974,0.919473 A 1.3118919,1.3118919 0 0 1 19.509054,42.7092 c 0.238625,-0.151848 0.528643,-0.227076 0.730443,-0.425258 0.404018,-0.396775 0.276,-1.056752 0.291517,-1.622808 0.01914,-0.698162 0.302137,-1.365626 0.352143,-2.062259 0.02499,-0.348139 -0.01709,-0.721398 -0.231403,-0.996885 a 1.8633756,1.8633756 0 0 0 -0.603496,-0.446971 l -1.905096,-1.044951 a 0.87995961,0.87995961 0 0 0 -0.282441,-0.114557 c -0.280452,-0.04302 -0.522871,0.181852 -0.788736,0.280946 a 1.851141,1.851141 0 0 1 -0.692239,0.07179 c -0.739582,-0.01713 -0.94774,0.105667 -1.444863,-0.306299 a 0.38871023,0.38871023 0 0 0 -0.300273,-0.08565 c -0.297322,0.04027 -0.875067,0.154392 -1.037719,0.444606 z"
         fill="#2f2e41"
         id="path326"
         style="stroke-width:0.141982" />
    </g>
  </g>
</svg>
